<svg width="45" height="47" xmlns="http://www.w3.org/2000/svg"><path d="M21.978 44.467c6.213 0 11.469-5.577 13.213-13.256a4.224 4.224 0 0 0 .595-8.378c-.015-.927-.027-1.847-.048-2.751-13.71 2.474-24.173.694-27.52-.03-.02.89-.032 1.8-.047 2.714l-.021-.002a4.226 4.226 0 1 0 .606 8.407c1.735 7.699 6.997 13.296 13.222 13.296zm19.867-30.23c7.38 17.82-2.878 30.657-2.878 30.657-2.116-3.192-4.71-3.56-6.384-3.375-.233.266-.472.525-.717.774-1.36 1.389-2.877 2.475-4.505 3.226a12.773 12.773 0 0 1-5.383 1.197 12.78 12.78 0 0 1-5.393-1.202c-1.63-.753-3.147-1.84-4.51-3.234a17.442 17.442 0 0 1-.736-.8c-1.653-.028-3.911.578-5.789 3.414 0 0-10.26-12.838-2.881-30.657C9.434-2.097 20.62-.077 22.44.374c0 0 12.025-3.956 19.404 13.863zM17.827 28.248a1.748 1.748 0 0 1-3.493 0 1.746 1.746 0 0 1 3.493 0zm8.605 6.988c.374.167.54.603.374.976-.339.753-1.49 2.506-4.889 2.506-3.721 0-4.795-2.414-4.84-2.519a.74.74 0 0 1 1.357-.586c.038.08.794 1.628 3.483 1.628.66 0 2.86-.118 3.54-1.633a.738.738 0 0 1 .975-.372zm1.967-8.734a1.747 1.747 0 1 1 0 3.495 1.747 1.747 0 0 1 0-3.495z" fill="#D588C6" fill-rule="evenodd"></path></svg>