<svg width="42" height="48" xmlns="http://www.w3.org/2000/svg"><path d="M16.338 28.975a1.767 1.767 0 1 1-3.534-.003 1.767 1.767 0 0 1 3.534.003zm10.694-1.767a1.767 1.767 0 1 1-.003 3.534 1.767 1.767 0 0 1 .003-3.534zm10.986.493a4.274 4.274 0 0 0-2.804-4.013l-.911 4.78c-.064.591-.554 1.026-1.094.968l-.035-.004c-.54-.058-.926-.587-.861-1.18l.153-8.257c-9.11 1.734-18.78-2.285-18.78-2.285-.572 5.88-3.417 5.287-5.46 5.287 0 .383.16 2.647.097 4.398l.026.857c.037.347-.08.668-.29.89-.093.16-.207.223-.33.227a.96.96 0 0 1-.243.063l-.035.004c-.54.058-1.03-.377-1.093-.969l-.933-4.89a4.275 4.275 0 0 0 1.124 8.398c.21 0 .413-.016.615-.046 1.753 7.787 7.077 13.448 13.372 13.448 6.284 0 11.6-5.641 13.364-13.405a4.273 4.273 0 0 0 4.118-4.27zm3.227-14.236c2.593-.17-1.911 3.803-1.911 3.803a17.161 17.161 0 0 1-2.668 1.452c.048 1.035.07 2.09.085 3.162a6.54 6.54 0 0 1 3.543 5.82 6.513 6.513 0 0 1-1.841 4.552 6.52 6.52 0 0 1-2.712 1.686 24.191 24.191 0 0 1-1.771 4.454c-.95 1.822-2.106 3.433-3.433 4.787-1.377 1.403-2.91 2.5-4.556 3.26a12.896 12.896 0 0 1-5.445 1.213c-1.872 0-3.707-.41-5.453-1.218-1.65-.761-3.184-1.862-4.564-3.27-1.326-1.359-2.483-2.974-3.432-4.8a24.113 24.113 0 0 1-1.696-4.218C2.33 33.598 0 30.917 0 27.701c0-2.37 1.267-4.45 3.16-5.6C-.815 2.886 11.616 3.248 11.616 3.248c1.775-1.955 4.37-2.655 4.37-2.655 8.875-2.655 16.384 4.24 18.978 8.012 2.594 3.774 3.686 5.03 6.28 4.86zm-15.813 22.77c.374.168.54.604.374.977-.339.753-1.49 2.506-4.889 2.506-3.721 0-4.795-2.414-4.84-2.519a.74.74 0 0 1 1.357-.586c.038.08.794 1.628 3.483 1.628.66 0 2.86-.118 3.54-1.633a.738.738 0 0 1 .975-.372z" fill="#729BD2" fill-rule="evenodd"></path></svg>